<svg xmlns="http://www.w3.org/2000/svg" xmlns:xlink="http://www.w3.org/1999/xlink" width="120" height="32" viewBox="0 0 120 32">
    <defs>
        <path id="prefix__a" d="M0 0.037L43.927 0.037 43.927 30.323 0 30.323z"/>
        <path id="prefix__c" d="M0.127 0.014L22.003 0.014 22.003 23.958 0.127 23.958z"/>
        <path id="prefix__e" d="M0 0.051L43.927 0.051 43.927 22.839 0 22.839z"/>
    </defs>
    <g fill="none" fill-rule="evenodd">
        <g fill="#2D3277">
            <path d="M66.16 9.876c-.384.5-.935.75-1.654.75-.718 0-1.271-.25-1.66-.75-.387-.5-.58-1.21-.58-2.13 0-.92.193-1.63.58-2.126.389-.497.942-.745 1.66-.745.72 0 1.27.248 1.655.745.384.497.577 1.205.577 2.125 0 .921-.193 1.632-.577 2.131zm1.965-5.575c-.793-.973-1.997-1.458-3.612-1.458-1.613 0-2.817.485-3.61 1.458-.794.971-1.19 2.12-1.19 3.444 0 1.349.396 2.501 1.19 3.46.793.956 1.997 1.436 3.61 1.436 1.615 0 2.82-.48 3.612-1.436.794-.959 1.19-2.111 1.19-3.46 0-1.324-.396-2.473-1.19-3.444zM46.61 8.741c-.016.807-.252 1.362-.706 1.667-.453.304-.949.457-1.486.457-.341 0-.629-.093-.866-.275-.237-.184-.355-.481-.355-.893 0-.462.193-.803.581-1.023.231-.13.608-.24 1.134-.329l.562-.102c.279-.052.499-.107.66-.167.162-.058.32-.134.477-.231v.896zm1.25-5.253c-.804-.399-1.724-.6-2.76-.6-1.592 0-2.716.407-3.37 1.217-.411.52-.642 1.182-.696 1.989h2.379c.059-.356.175-.638.35-.846.246-.282.663-.423 1.253-.423.527 0 .925.07 1.198.216.27.144.407.405.407.782 0 .31-.177.538-.531.685-.198.085-.526.156-.986.212l-.844.101c-.957.118-1.684.317-2.176.593-.902.508-1.351 1.327-1.351 2.461 0 .873.279 1.55.839 2.026.558.476 1.27.676 2.127.715 5.379.235 5.318-2.773 5.368-3.398V5.755c0-1.11-.403-1.867-1.207-2.267zM35.595 4.95c.615 0 1.066.186 1.358.557.2.275.325.585.374.928h2.653c-.146-1.31-.614-2.224-1.405-2.741-.793-.516-1.81-.776-3.051-.776-1.462 0-2.61.44-3.439 1.316-.83.877-1.246 2.104-1.246 3.68 0 1.397.375 2.535 1.127 3.412.752.876 1.925 1.315 3.519 1.315 1.596 0 2.8-.526 3.612-1.577.51-.652.795-1.343.855-2.075h-2.644c-.054.484-.208.878-.464 1.182-.256.302-.685.455-1.293.455-.857 0-1.44-.382-1.75-1.148-.17-.409-.255-.95-.255-1.623 0-.705.086-1.271.255-1.7.322-.802.92-1.205 1.794-1.205M30.127 2.918c-5.45 0-5.127 4.72-5.127 4.72v4.796h2.473V7.936c0-.736.095-1.282.283-1.637.34-.629 1.003-.944 1.992-.944.075 0 .173.003.293.009.12.006.258.016.415.034V2.936c-.11-.007-.181-.01-.212-.013-.032-.003-.07-.005-.117-.005M17.717 5.424c.349-.35.837-.525 1.467-.525.58 0 1.065.164 1.458.495.39.33.61.815.653 1.452h-4.231c.088-.598.307-1.072.653-1.422zm3.325 4.504c-.104.146-.215.27-.339.367-.349.281-.823.366-1.382.366-.529 0-.942-.078-1.317-.309-.617-.37-.964-.999-1-1.92h6.843c.009-.794-.017-1.401-.083-1.824-.114-.72-.364-1.355-.748-1.9-.426-.62-.97-1.073-1.624-1.361-.654-.286-1.39-.43-2.208-.43-1.378 0-2.497.425-3.36 1.274-.863.85-1.296 2.07-1.296 3.663 0 1.7.479 2.926 1.435 3.68.956.753 2.06 1.131 3.31 1.131 1.514 0 2.692-.447 3.534-1.341.454-.47.738-.936.858-1.396h-2.623zM13.535 12.433h-2.259V6.868c0-.508-.172-1.718-1.662-1.718-.994 0-1.712.701-1.712 1.718v5.565H5.64V6.868c0-.508-.154-1.718-1.643-1.718-1.011 0-1.713.701-1.713 1.718v5.565H.024V6.921c0-2.298 1.557-4.035 3.973-4.035 1.199 0 2.175.492 2.809 1.282.667-.79 1.66-1.282 2.808-1.282 2.466 0 3.921 1.667 3.921 4.035v5.512M56.01 9.896c-.36.506-.89.76-1.585.76-.697 0-1.214-.256-1.556-.764-.341-.51-.512-1.25-.512-2.1 0-.787.167-1.446.504-1.977.335-.53.862-.797 1.58-.797.472 0 .886.146 1.243.438.58.484.87 1.352.87 2.475 0 .804-.182 1.46-.543 1.965zM58.978.011s-2.491-.26-2.491 1.698l-.002 2.592c-.276-.433-.635-.772-1.077-1.016-.441-.244-.947-.367-1.518-.367-1.235 0-2.22.45-2.959 1.35-.74.9-1.107 2.196-1.107 3.764 0 1.36.375 2.476 1.125 3.345.75.867 2.22 1.248 3.526 1.248 4.554 0 4.502-3.82 4.502-3.82L58.977.01zM27.314 19.531c.345-.346.83-.52 1.453-.52.575 0 1.056.163 1.445.491.388.327.604.807.648 1.44h-4.195c.09-.594.306-1.064.65-1.41zm3.295 4.465c-.103.145-.214.268-.335.363-.348.279-.836.382-1.39.382-.522 0-.932-.077-1.303-.306-.613-.368-.937-1.008-.975-1.923h6.783c.01-.785-.017-1.389-.082-1.807-.113-.714-.36-1.343-.74-1.884-.425-.614-.962-1.063-1.61-1.348-.65-.285-1.38-.426-2.19-.426-1.366 0-2.474.42-3.33 1.262-.855.844-1.284 2.052-1.284 3.63 0 1.685.474 2.902 1.422 3.649.947.747 2.042 1.12 3.28 1.12 1.501 0 2.669-.443 3.502-1.33.451-.465.733-.927.852-1.382h-2.6zM14.634 23.976c-.343.508-.86.762-1.556.762-.695 0-1.225-.25-1.587-.758-.361-.506-.543-1.16-.543-1.965 0-1.124.29-1.927.87-2.411.358-.291.772-.439 1.242-.439.719 0 1.247.266 1.582.798.337.53.505 1.19.505 1.976 0 .849-.171 1.528-.513 2.037zm-1.022-6.91c-.568 0-1.075.122-1.517.366-.443.245-.802.584-1.078 1.017v-4.353s-2.49-.241-2.49 1.739v7.053s-.052 3.821 4.502 3.821c1.306 0 2.776-.382 3.527-1.25.749-.868 1.124-1.982 1.124-3.343 0-1.568-.369-2.801-1.108-3.7-.737-.901-1.724-1.35-2.96-1.35zM23.68 17.055c-.032-.001-.07-.003-.116-.003-5.451 0-5.128 4.72-5.128 4.72v4.72h2.474V22.07c0-.737.094-1.283.285-1.637.338-.629 1.002-.945 1.99-.945.076 0 .172.003.293.01.121.005.26.016.414.033v-2.461c-.109-.007-.18-.01-.212-.014M0 15.827v10.648h2.32V14.091S0 13.999 0 15.827M4.218 16.481L6.702 16.481 6.702 14.074 4.218 14.074zM4.218 26.493L6.707 26.493 6.707 17.302 4.218 17.302z" transform="translate(0 .25) translate(50.671 .8)"/>
        </g>
        <g>
            <g transform="translate(0 .25) translate(0 1.277)">
                <mask id="prefix__b" fill="#fff">
                    <use xlink:href="#prefix__a"/>
                </mask>
                <path fill="#2D3277" d="M43.927 14.348c0-7.884-9.833-14.31-21.962-14.31C9.835.037.003 6.463.003 14.347L0 15.185c0 8.365 8.594 15.138 21.962 15.138 13.45 0 21.965-6.772 21.965-15.136v-.84z" mask="url(#prefix__b)"/>
            </g>
            <path fill="#FFD100" d="M43.086 15.617c0 7.432-9.454 13.458-21.117 13.458S.85 23.049.85 15.617c0-7.433 9.455-13.458 21.118-13.458 11.663 0 21.117 6.025 21.117 13.458" transform="translate(0 .25)"/>
            <path fill="#FFF" d="M1.096 20.206c1.017 2.177 2.035 3.215 2.035 3.215.448-.863.481-1.323.97-1.502.71-.26.979.11 3.31.42 3.695.492 5.3.635 11.724.063 4.657-.414 1.533-5.406.467-8.079-1.066-2.673-2.18-5.047-2.81-6.403-.63-1.356-1.404-2.7-2.47-3.845-1.066-1.144-2.906-2.986-3.44-3.421-.532-.435-1.452.29-1.792.581-.339.29-2.378 1.208-1.72 2.107 0 0 .316.546.582.733.266.188-1.502-.539-1.502.503 0 1.041 1.623.872 2.083 1.065.46.194.92.194 1.43.46.508.267 1.344.606 2.004.582.66-.025.902-.364 1.24.508.34.872 1.188 2.858 1.042 4.869-.145 2.01.032 4.721.42 5.714 0 0-7.775-3.656-14.12-2.42 0 0-.238 3.166.547 4.85" transform="translate(0 .25)"/>
            <g transform="translate(0 .25) translate(0 .115)">
                <mask id="prefix__d" fill="#fff">
                    <use xlink:href="#prefix__c"/>
                </mask>
                <path fill="#2D3277" d="M1.447 19.926c.608 1.301 1.218 2.186 1.593 2.67l.044-.1c.213-.487.382-.873.884-1.056.52-.19.866-.11 1.495.034.437.1 1.035.237 2 .366 3.668.488 5.261.628 11.638.061.98-.087 1.602-.38 1.904-.898.696-1.196-.339-3.472-1.17-5.3-.221-.485-.43-.943-.592-1.352-1-2.507-2.055-4.778-2.686-6.134l-.116-.25c-.735-1.583-1.498-2.773-2.402-3.744-1.106-1.187-2.917-2.99-3.401-3.385-.192-.155-.712.075-1.296.576-.092.079-.232.165-.427.284-.392.24-1.208.738-1.283 1.117-.009.047-.01.101.051.183l.023.035c.11.19.336.516.469.61.212.15.218.361.16.498-.129.3-.438.238-.604.205-.468-.093-.757-.098-.859-.014-.023.019-.035.063-.035.13 0 .325.278.46 1.186.575.263.033.49.062.66.134.17.071.35.115.54.16.276.066.587.14.919.314.52.273 1.271.557 1.81.537.132-.004.247-.025.358-.045.484-.086.914-.086 1.259.8l.071.183c.37.937 1.138 2.886.995 4.854-.144 2.003.044 4.647.395 5.546l.352.904-.878-.413c-.075-.035-7.493-3.474-13.585-2.445-.035.81-.07 3.08.528 4.36zm1.782 4.032l-.374-.381c-.044-.045-1.077-1.11-2.11-3.323-.818-1.755-.592-4.91-.582-5.043l.022-.294.29-.057c5.318-1.036 11.496 1.24 13.613 2.124-.264-1.36-.338-3.504-.225-5.066.13-1.792-.568-3.563-.943-4.515l-.073-.185c-.116-.299-.186-.347-.188-.349-.024-.004-.133.016-.213.03-.124.023-.28.05-.465.057-.87.034-1.903-.47-2.198-.625-.246-.129-.486-.186-.74-.247-.212-.05-.432-.103-.66-.2-.073-.03-.277-.056-.457-.079-.651-.083-1.863-.236-1.863-1.343 0-.387.173-.61.318-.729.2-.163.451-.223.702-.234l-.038-.061c-.166-.236-.226-.503-.172-.773.14-.712 1.042-1.263 1.638-1.628.133-.081.283-.173.328-.211 1.212-1.04 1.914-.893 2.288-.588.555.453 2.43 2.332 3.478 3.458.961 1.032 1.768 2.286 2.539 3.946l.115.248c.634 1.364 1.695 3.648 2.703 6.174.156.392.36.842.577 1.317.906 1.992 2.033 4.47 1.135 6.011-.431.74-1.274 1.171-2.505 1.28-6.458.575-8.077.432-11.809-.065-1-.133-1.618-.275-2.07-.378-.609-.14-.763-.168-1.056-.062-.174.064-.239.178-.442.64-.08.185-.181.414-.317.677l-.246.474z" mask="url(#prefix__d)"/>
            </g>
            <path fill="#2D3277" d="M7.215 4.387s.672.027 1.274.318c.375.18.554.378.916.229.053-.022.107-.041.161-.061.838-.303.838-.303 1.431.358.482.536.866.651 1.24.444-.475-.466-1-.922-1.451-1.44-.56-.642-.54-.795-.086-1.46l-.066-.099c-.155.12-.312.235-.463.358-.1.082-.19.176-.285.265-.106-.124-.247-.233-.306-.376-.068-.164-.063-.358-.188-.545l-.088.931-.494.058.433.181-.05.313c.503-.34.802-.533.997.316-.374.113-.666.168-1.05.255-.265.06-1.05-.759-1.245-.944" transform="translate(0 .25)"/>
            <path fill="#FFF" d="M42.49 20.206c-1.016 2.177-2.034 3.215-2.034 3.215-.447-.863-.48-1.323-.97-1.502-.71-.26-.979.11-3.31.42-3.695.492-5.3.635-11.724.063-4.657-.414-1.533-5.406-.467-8.079 1.066-2.673 2.18-5.047 2.81-6.403.63-1.356 1.404-2.7 2.47-3.845 1.066-1.144 2.906-2.986 3.44-3.421.532-.435 1.453.29 1.792.581.339.29 2.378 1.208 1.72 2.107 0 0-.316.546-.582.733-.266.188 1.502-.539 1.502.503 0 1.041-1.623.872-2.083 1.065-.46.194-.92.194-1.43.46-.508.267-1.344.606-2.003.582-.66-.025-.903-.364-1.242.508-.339.872-1.187 2.858-1.041 4.869.145 2.01-.032 4.721-.42 5.714 0 0 8.267-3.728 14.612-2.493 0 0-.254 3.24-1.04 4.923" transform="translate(0 .25)"/>
            <path fill="#2D3277" d="M39.024 21.444c.19 0 .377.032.595.112.502.183.67.568.885 1.055l.044.1c.374-.483.985-1.368 1.592-2.67.6-1.284.882-3.57.971-4.44-6.104-1.002-13.954 2.492-14.034 2.528l-.864.39.345-.883c.35-.9.538-3.543.394-5.547-.143-1.967.626-3.917.995-4.854l.071-.182c.345-.887.774-.887 1.26-.8.11.02.225.04.357.045.539.019 1.29-.265 1.81-.537.332-.174.643-.249.918-.314.19-.046.371-.09.54-.16.171-.072.398-.101.661-.135.909-.115 1.186-.25 1.186-.574 0-.068-.012-.112-.035-.13-.102-.085-.391-.08-.86.013-.165.033-.474.095-.603-.205-.058-.136-.051-.348.16-.497.133-.094.359-.42.47-.61l.022-.035c.06-.083.06-.137.05-.183-.074-.38-.89-.878-1.282-1.118-.195-.119-.335-.205-.427-.284-.584-.5-1.104-.731-1.296-.575-.484.394-2.295 2.198-3.4 3.385-.905.97-1.668 2.16-2.403 3.744l-.115.248c-.631 1.357-1.687 3.628-2.686 6.135-.163.41-.372.867-.592 1.352-.832 1.828-1.867 4.105-1.171 5.3.302.518.925.812 1.904.899 6.377.567 7.97.427 11.638-.062.965-.128 1.563-.265 2-.365.366-.084.636-.146.9-.146zm1.335 2.63l-.246-.475c-.137-.262-.237-.492-.318-.677-.203-.461-.268-.576-.442-.64-.292-.106-.447-.077-1.056.062-.451.104-1.07.245-2.07.379-3.732.497-5.351.64-11.81.065-1.23-.11-2.073-.54-2.504-1.28-.898-1.542.23-4.02 1.135-6.011.217-.476.421-.925.578-1.317 1.007-2.528 2.068-4.811 2.702-6.175l.115-.248c.771-1.66 1.578-2.913 2.539-3.946C30.03 2.685 31.905.806 32.46.354c.374-.306 1.076-.452 2.289.587.045.039.194.13.327.211.596.365 1.498.916 1.639 1.629.053.27-.007.536-.173.772l-.037.062c.25.01.502.07.701.234.145.119.318.342.318.729 0 1.106-1.212 1.26-1.862 1.342-.18.023-.385.05-.458.08-.228.096-.448.149-.66.2-.254.06-.493.117-.74.246-.295.155-1.327.659-2.198.626-.186-.007-.34-.035-.465-.057-.08-.014-.189-.034-.22-.027.003 0-.066.05-.181.346l-.073.185c-.375.951-1.073 2.723-.943 4.515.113 1.567.039 3.72-.227 5.08.85-.343 2.373-.912 4.246-1.421 4.8-1.305 8.011-1.15 9.861-.79l.34.066-.028.344c-.01.135-.268 3.33-1.075 5.056-1.032 2.212-2.065 3.279-2.109 3.323l-.373.381z" transform="translate(0 .25)"/>
            <path fill="#2D3277" d="M36.372 4.387s-.672.027-1.274.318c-.375.18-.554.378-.916.229-.053-.022-.107-.041-.161-.061-.838-.303-.838-.303-1.431.358-.482.536-.866.651-1.24.444.475-.466 1-.922 1.451-1.44.56-.642.54-.795.086-1.46l.066-.099c.155.12.312.235.463.358.1.082.19.176.286.265.105-.124.246-.233.305-.376.068-.164.063-.358.188-.545l.088.931.494.058-.433.181.05.313c-.503-.34-.802-.533-.997.316.374.113.666.168 1.05.255.265.06 1.051-.759 1.245-.944" transform="translate(0 .25)"/>
            <g transform="translate(0 .25) translate(0 8.76)">
                <mask id="prefix__f" fill="#fff">
                    <use xlink:href="#prefix__e"/>
                </mask>
                <path fill="#2D3277" d="M40.191.051c1.84 1.997 2.895 4.323 2.895 6.805 0 7.433-9.454 13.458-21.117 13.458S.85 14.29.85 6.856c0-1.57.423-3.08 1.2-4.48l-.976.066C.379 3.836.003 5.322.003 6.864L0 7.702c0 8.364 8.594 15.137 21.962 15.137 13.45 0 21.965-6.772 21.965-15.136v-.84c0-2.463-.96-4.784-2.65-6.812H40.19z" mask="url(#prefix__f)"/>
            </g>
        </g>
    </g>
</svg>
